<?xml version="1.0" encoding="UTF-8"?>
<svg version="1.1" viewBox="0 0 25 25" xmlns="http://www.w3.org/2000/svg">
<title>numbered-list</title>
<desc>Created with Sketch.</desc>
<g fill="none" fill-rule="evenodd">
<g fill="#000" fill-rule="nonzero">
<path d="m3.7022 0h-1.4865l-1.907 1.7808 0.99548 1.0658c0.39263-0.34583 0.62638-0.59848 0.70123-0.75722h0.028045v0.16832c0 0.37392-0.0024558 0.93939-0.0070727 1.6967-0.0047151 0.75722-0.0070727 1.3275-0.0070727 1.7108h-1.5005v1.3883h4.6977v-1.3883h-1.5143v-5.6652z"/>
<path d="m24.828 3.5969c-0.089194-0.088851-0.19411-0.1332-0.31582-0.1332h-17.052c-0.12151 0-0.22647 0.044352-0.31547 0.1332-0.088654 0.088851-0.13301 0.19396-0.13301 0.31552v2.6924c0 0.12156 0.044204 0.22667 0.13301 0.31552 0.088998 0.088752 0.19396 0.1332 0.31547 0.1332h17.052c0.12171 0 0.22677-0.04445 0.31567-0.1332 0.088802-0.088851 0.13296-0.19396 0.13296-0.31552v-2.6924c1.965e-4 -0.12151-0.044155-0.22667-0.13296-0.31552z"/>
<path d="m3.6181 20.67 1.3322-1.6126v-1.234h-4.6697v2.1314h1.4863v-0.74322c0.14961 0 0.37628-0.0042239 0.68026-0.013605 0.30363-0.0095776 0.53045-0.014145 0.68006-0.014145v0.014145c-0.17785 0.16827-0.35064 0.34808-0.51896 0.53988-0.16832 0.19175-0.36694 0.44406-0.59602 0.75683-0.22893 0.31331-0.3807 0.51675-0.45555 0.61017l0.36449 0.78527c0.98158-0.074951 1.4724 0.18674 1.4724 0.78527 0 0.26169-0.10049 0.46036-0.30152 0.59568-0.20083 0.13585-0.43698 0.20359-0.7081 0.20359-0.53281 0-1.0283-0.21027-1.4863-0.63114l-0.79951 1.234c0.61699 0.61699 1.421 0.92549 2.412 0.92549 0.75717 0 1.3905-0.21483 1.9002-0.64494 0.50948-0.43016 0.76419-1.0191 0.76419-1.7669 0-0.47687-0.14042-0.88816-0.42053-1.2342-0.28055-0.34558-0.65899-0.57485-1.136-0.68694z"/>
<path d="m3.73 14.64h-1.7809c0.0094794-0.23379 0.17539-0.47917 0.49794-0.736 0.32254-0.25697 0.6752-0.49298 1.0587-0.7081 0.38315-0.21518 0.73374-0.5164 1.0517-0.90432 0.31788-0.38802 0.47677-0.81572 0.47677-1.2832 0-0.6638-0.23364-1.1897-0.70103-1.5777-0.46729-0.38792-1.0424-0.58197-1.7248-0.58197-0.54234 0-1.0355 0.1332-1.4796 0.39971-0.44401 0.2664-0.77814 0.63806-1.0026 1.115l1.192 0.82731c0.32726-0.54234 0.70584-0.81336 1.1358-0.81336 0.23389 0 0.41847 0.063114 0.55408 0.18929 0.13541 0.12642 0.20339 0.30624 0.20339 0.53998 0 0.21498-0.10992 0.42534-0.32962 0.63099-0.21979 0.20565-0.48384 0.40894-0.79244 0.60997-0.30845 0.20103-0.61704 0.42313-0.92544 0.66616-0.30845 0.24307-0.57274 0.56076-0.79244 0.95339-0.2196 0.39263-0.32947 0.82746-0.32947 1.3042 0 0.16822 0.028045 0.42068 0.084037 0.75722h5.0763v-2.23-1.965e-4h-1.4724v0.84155z"/>
<path d="m24.512 17.823h-17.052c-0.1308 0-0.23836 0.042142-0.32235 0.12618-0.084136 0.084086-0.12613 0.1916-0.12613 0.3224v2.6925c0 0.12156 0.044204 0.22672 0.13301 0.31547 0.088998 0.088802 0.19396 0.13315 0.31547 0.13315h17.052c0.12171 0 0.22677-0.044008 0.31567-0.13315 0.088802-0.088752 0.13296-0.19391 0.13296-0.31547v-2.6924c0-0.12137-0.044499-0.22657-0.13296-0.31532-0.089047-0.088802-0.19411-0.1333-0.31577-0.1333z"/>
<path d="m24.512 10.643h-17.052c-0.1308 0-0.23836 0.041994-0.32235 0.12613-0.084136 0.084136-0.12613 0.1917-0.12613 0.32254v2.6924c0 0.12156 0.044204 0.22657 0.13301 0.31552 0.088998 0.0889 0.19396 0.1333 0.31547 0.1333h17.052c0.12171 0 0.22677-0.044401 0.31567-0.1333 0.088802-0.088949 0.13296-0.19396 0.13296-0.31552v-2.6924c0-0.12151-0.044499-0.22667-0.13296-0.31547-0.089047-0.088802-0.19411-0.1332-0.31577-0.1332z"/>
</g>
</g>
</svg>
